<svg width="36" height="37" viewBox="0 0 36 37" fill="none" xmlns="http://www.w3.org/2000/svg">
<path d="M0.5 8.5C0.5 4.35786 3.85786 1 8 1H28C32.1421 1 35.5 4.35786 35.5 8.5V28.5C35.5 32.6421 32.1421 36 28 36H8C3.85786 36 0.5 32.6421 0.5 28.5V8.5Z" stroke="#1A56DB"/>
<path d="M18 8.5C16.0222 8.5 14.0888 9.08649 12.4443 10.1853C10.7998 11.2841 9.51809 12.8459 8.76121 14.6732C8.00433 16.5004 7.8063 18.5111 8.19215 20.4509C8.578 22.3907 9.53041 24.1725 10.9289 25.5711C12.3275 26.9696 14.1093 27.922 16.0491 28.3078C17.9889 28.6937 19.9996 28.4957 21.8268 27.7388C23.6541 26.9819 25.2159 25.7002 26.3147 24.0557C27.4135 22.4112 28 20.4778 28 18.5C27.9971 15.8487 26.9426 13.3069 25.0679 11.4321C23.1931 9.55741 20.6513 8.50291 18 8.5ZM17.5 12.5C17.7967 12.5 18.0867 12.588 18.3334 12.7528C18.58 12.9176 18.7723 13.1519 18.8858 13.426C18.9994 13.7001 19.0291 14.0017 18.9712 14.2926C18.9133 14.5836 18.7704 14.8509 18.5607 15.0607C18.3509 15.2704 18.0836 15.4133 17.7926 15.4712C17.5017 15.5291 17.2001 15.4993 16.926 15.3858C16.6519 15.2723 16.4176 15.08 16.2528 14.8334C16.088 14.5867 16 14.2967 16 14C16 13.6022 16.158 13.2206 16.4393 12.9393C16.7206 12.658 17.1022 12.5 17.5 12.5ZM20 23.5H16C15.7348 23.5 15.4804 23.3946 15.2929 23.2071C15.1054 23.0196 15 22.7652 15 22.5C15 22.2348 15.1054 21.9804 15.2929 21.7929C15.4804 21.6054 15.7348 21.5 16 21.5H17V18.5H16C15.7348 18.5 15.4804 18.3946 15.2929 18.2071C15.1054 18.0196 15 17.7652 15 17.5C15 17.2348 15.1054 16.9804 15.2929 16.7929C15.4804 16.6054 15.7348 16.5 16 16.5H18C18.2652 16.5 18.5196 16.6054 18.7071 16.7929C18.8946 16.9804 19 17.2348 19 17.5V21.5H20C20.2652 21.5 20.5196 21.6054 20.7071 21.7929C20.8946 21.9804 21 22.2348 21 22.5C21 22.7652 20.8946 23.0196 20.7071 23.2071C20.5196 23.3946 20.2652 23.5 20 23.5Z" fill="#1A56DB"/>
</svg>
